<svg width="25" height="25" viewBox="0 0 25 25" fill="none" xmlns="http://www.w3.org/2000/svg">
<circle cx="12.5" cy="12.5" r="12.5" fill="#FFF2D0"/>
<path d="M11.0673 8.35016C11.0233 8.1853 10.9998 8.01206 10.9998 7.83334C10.9998 6.72877 11.8953 5.83334 12.9998 5.83334C14.1044 5.83334 14.9998 6.72877 14.9998 7.83334C14.9998 8.01206 14.9764 8.1853 14.9324 8.35016M11.0673 8.35016C11.6261 8.02287 12.289 7.83334 12.9998 7.83334C13.7107 7.83334 14.3736 8.02287 14.9324 8.35016M11.0673 8.35016C11.0215 8.37699 10.9764 8.40473 10.932 8.43338C9.99853 9.03601 9.38806 10.0355 9.38806 11.1667V11.5929C9.38806 12.6279 9.12697 13.6486 8.62545 14.5743L7.7437 16.2019C7.50355 16.6451 7.85281 17.1667 8.38979 17.1667H10.9998M14.9324 8.35016C14.9782 8.37699 15.0233 8.40473 15.0677 8.43338C16.0011 9.03601 16.6116 10.0355 16.6116 11.1667V11.5929C16.6116 12.6279 16.8727 13.6486 17.3742 14.5743L18.256 16.2019C18.4961 16.6451 18.1469 17.1667 17.6099 17.1667H14.9998M14.9998 17.1667C14.9998 18.2712 14.1044 19.1667 12.9998 19.1667C11.8953 19.1667 10.9998 18.2712 10.9998 17.1667M14.9998 17.1667H10.9998" stroke="#FEDD88" stroke-width="1.5"/>
</svg>
